<svg width="32" height="32" viewBox="0 0 32 32" fill="none" xmlns="http://www.w3.org/2000/svg">
<g id="remix-icons/fill/system/question-fill" clip-path="url(#clip0_110_110)">
<g id="Group">
<path id="Vector" d="M16 29.3332C8.63599 29.3332 2.66666 23.3638 2.66666 15.9998C2.66666 8.63584 8.63599 2.6665 16 2.6665C23.364 2.6665 29.3333 8.63584 29.3333 15.9998C29.3333 23.3638 23.364 29.3332 16 29.3332ZM14.6667 19.9998V22.6665H17.3333V19.9998H14.6667ZM17.3333 17.8065C18.4049 17.4835 19.3248 16.7864 19.9255 15.8422C20.5263 14.8979 20.7679 13.7692 20.6063 12.6618C20.4447 11.5543 19.8908 10.5418 19.0453 9.80845C18.1999 9.07514 17.1192 8.66989 16 8.6665C14.9211 8.66642 13.8755 9.04004 13.041 9.72383C12.2065 10.4076 11.6347 11.3593 11.4227 12.4172L14.0387 12.9412C14.1129 12.5697 14.2911 12.227 14.5525 11.9529C14.8139 11.6788 15.1477 11.4846 15.5152 11.3928C15.8827 11.301 16.2687 11.3154 16.6283 11.4345C16.9879 11.5535 17.3063 11.7722 17.5464 12.0651C17.7866 12.3579 17.9386 12.713 17.9849 13.089C18.0311 13.4649 17.9697 13.8462 17.8077 14.1886C17.6457 14.531 17.3898 14.8203 17.0698 15.0229C16.7497 15.2256 16.3788 15.3331 16 15.3332C15.6464 15.3332 15.3072 15.4736 15.0572 15.7237C14.8071 15.9737 14.6667 16.3129 14.6667 16.6665V18.6665H17.3333V17.8065Z" fill="white"/>
</g>
</g>
<defs>
<clipPath id="clip0_110_110">
<rect width="32" height="32" fill="white"/>
</clipPath>
</defs>
</svg>
