<svg width="24" height="24" viewBox="0 0 24 24" fill="none" xmlns="http://www.w3.org/2000/svg">
<g id="remix-icons/fill/system/settings-3-fill" clip-path="url(#clip0_110_92)">
<g id="Group">
<path id="Vector" d="M9.95399 2.21021C11.3029 1.92735 12.6958 1.92667 14.045 2.20821C14.1349 2.8015 14.3573 3.3669 14.6958 3.86239C15.0342 4.35788 15.48 4.77072 16 5.07021C16.5195 5.37075 17.1002 5.55028 17.6987 5.59547C18.2972 5.64065 18.8982 5.55033 19.457 5.33121C20.3753 6.35928 21.0709 7.56625 21.5 8.87622C21.0313 9.25079 20.6531 9.72616 20.3934 10.267C20.1337 10.8078 19.9993 11.4003 20 12.0002C20 13.2642 20.586 14.3912 21.502 15.1242C21.0703 16.4331 20.3739 17.6391 19.456 18.6672C18.8973 18.4483 18.2965 18.358 17.6982 18.4032C17.0999 18.4484 16.5194 18.6278 16 18.9282C15.4804 19.2276 15.035 19.6402 14.6967 20.1353C14.3585 20.6304 14.136 21.1954 14.046 21.7882C12.6972 22.0717 11.3043 22.0731 9.95499 21.7922C9.86553 21.1984 9.64329 20.6324 9.30481 20.1364C8.96632 19.6403 8.52032 19.227 7.99999 18.9272C7.48035 18.6268 6.89969 18.4475 6.30117 18.4025C5.70266 18.3575 5.1017 18.448 4.54299 18.6672C3.62458 17.6389 2.92899 16.4315 2.49999 15.1212C2.96838 14.7468 3.34644 14.2718 3.60612 13.7313C3.8658 13.1909 4.00042 12.5988 3.99999 11.9992C4.00048 11.3991 3.86569 10.8066 3.60565 10.2657C3.34561 9.72488 2.96701 9.24959 2.49799 8.87522C2.92965 7.56634 3.6261 6.36032 4.54399 5.33221C5.10264 5.55117 5.70345 5.64141 6.30178 5.59623C6.90011 5.55104 7.48055 5.37159 7.99999 5.07121C8.51953 4.77181 8.96497 4.35924 9.30325 3.86412C9.64152 3.369 9.86394 2.80406 9.95399 2.21121V2.21021ZM12 15.0002C12.7956 15.0002 13.5587 14.6841 14.1213 14.1215C14.6839 13.5589 15 12.7959 15 12.0002C15 11.2046 14.6839 10.4415 14.1213 9.87889C13.5587 9.31629 12.7956 9.00022 12 9.00022C11.2043 9.00022 10.4413 9.31629 9.87866 9.87889C9.31606 10.4415 8.99999 11.2046 8.99999 12.0002C8.99999 12.7959 9.31606 13.5589 9.87866 14.1215C10.4413 14.6841 11.2043 15.0002 12 15.0002Z" fill="#CCD1F3"/>
</g>
</g>
<defs>
<clipPath id="clip0_110_92">
<rect width="24" height="24" fill="white"/>
</clipPath>
</defs>
</svg>
