<svg width="24" height="24" viewBox="0 0 24 24" fill="none" xmlns="http://www.w3.org/2000/svg">
<g id="remix-icons/fill/finance/shopping-cart-2-fill" clip-path="url(#clip0_110_104)">
<g id="Group">
<path id="Vector" d="M4 6.41384L0.757004 3.17184L2.172 1.75684L5.414 4.99984H20.656C20.8119 4.99983 20.9656 5.03625 21.1049 5.1062C21.2442 5.17616 21.3652 5.2777 21.4582 5.40273C21.5513 5.52776 21.6139 5.67282 21.6409 5.82632C21.6679 5.97983 21.6587 6.13753 21.614 6.28684L19.214 14.2868C19.1523 14.4929 19.0257 14.6736 18.8531 14.802C18.6805 14.9305 18.4711 14.9999 18.256 14.9998H6V16.9998H17V18.9998H5C4.73479 18.9998 4.48043 18.8945 4.2929 18.7069C4.10536 18.5194 4 18.2651 4 17.9998V6.41384ZM5.5 22.9998C5.10218 22.9998 4.72065 22.8418 4.43934 22.5605C4.15804 22.2792 4 21.8977 4 21.4998C4 21.102 4.15804 20.7205 4.43934 20.4392C4.72065 20.1579 5.10218 19.9998 5.5 19.9998C5.89783 19.9998 6.27936 20.1579 6.56066 20.4392C6.84197 20.7205 7 21.102 7 21.4998C7 21.8977 6.84197 22.2792 6.56066 22.5605C6.27936 22.8418 5.89783 22.9998 5.5 22.9998ZM17.5 22.9998C17.1022 22.9998 16.7206 22.8418 16.4393 22.5605C16.158 22.2792 16 21.8977 16 21.4998C16 21.102 16.158 20.7205 16.4393 20.4392C16.7206 20.1579 17.1022 19.9998 17.5 19.9998C17.8978 19.9998 18.2794 20.1579 18.5607 20.4392C18.842 20.7205 19 21.102 19 21.4998C19 21.8977 18.842 22.2792 18.5607 22.5605C18.2794 22.8418 17.8978 22.9998 17.5 22.9998Z" fill="#CCD1F3"/>
</g>
</g>
<defs>
<clipPath id="clip0_110_104">
<rect width="24" height="24" fill="white"/>
</clipPath>
</defs>
</svg>
