<svg width="37" height="43" viewBox="0 0 37 43" fill="none" xmlns="http://www.w3.org/2000/svg">
<g id="remix-icons/fill/system/lock-2-fill">
<g id="Group">
<g id="Vector" filter="url(#filter0_di_199_4129)">
<path d="M27.25 14.6668H30.1667C30.5534 14.6668 30.9244 14.8205 31.1979 15.094C31.4714 15.3675 31.625 15.7384 31.625 16.1252V33.6252C31.625 34.0119 31.4714 34.3829 31.1979 34.6564C30.9244 34.9299 30.5534 35.0835 30.1667 35.0835H6.83333C6.44656 35.0835 6.07563 34.9299 5.80214 34.6564C5.52865 34.3829 5.375 34.0119 5.375 33.6252V16.1252C5.375 15.7384 5.52865 15.3675 5.80214 15.094C6.07563 14.8205 6.44656 14.6668 6.83333 14.6668H9.75V13.2085C9.75 10.8879 10.6719 8.66226 12.3128 7.02131C13.9538 5.38037 16.1794 4.4585 18.5 4.4585C20.8206 4.4585 23.0462 5.38037 24.6872 7.02131C26.3281 8.66226 27.25 10.8879 27.25 13.2085V14.6668ZM17.0417 25.9427V29.2502H19.9583V25.9427C20.5144 25.6216 20.9489 25.1261 21.1946 24.5329C21.4404 23.9397 21.4835 23.282 21.3173 22.6619C21.1511 22.0417 20.7849 21.4937 20.2756 21.1028C19.7662 20.7119 19.1421 20.5001 18.5 20.5001C17.8579 20.5001 17.2338 20.7119 16.7244 21.1028C16.2151 21.4937 15.8489 22.0417 15.6827 22.6619C15.5165 23.282 15.5596 23.9397 15.8054 24.5329C16.0511 25.1261 16.4856 25.6216 17.0417 25.9427ZM24.3333 14.6668V13.2085C24.3333 11.6614 23.7188 10.1777 22.6248 9.08371C21.5308 7.98974 20.0471 7.37516 18.5 7.37516C16.9529 7.37516 15.4692 7.98974 14.3752 9.08371C13.2812 10.1777 12.6667 11.6614 12.6667 13.2085V14.6668H24.3333Z" fill="url(#paint0_linear_199_4129)"/>
<path d="M27.15 14.6668V14.7668H27.25H30.1667C30.5269 14.7668 30.8724 14.9099 31.1272 15.1647C31.3819 15.4194 31.525 15.7649 31.525 16.1252V33.6252C31.525 33.9854 31.3819 34.3309 31.1272 34.5857C30.8724 34.8404 30.5269 34.9835 30.1667 34.9835H6.83333C6.47308 34.9835 6.12758 34.8404 5.87285 34.5857C5.61811 34.3309 5.475 33.9854 5.475 33.6252V16.1252C5.475 15.7649 5.61811 15.4194 5.87285 15.1647C6.12758 14.9099 6.47308 14.7668 6.83333 14.7668H9.75H9.85V14.6668V13.2085C9.85 10.9144 10.7613 8.71421 12.3835 7.09202C14.0057 5.46983 16.2059 4.5585 18.5 4.5585C20.7941 4.5585 22.9943 5.46983 24.6165 7.09202C26.2387 8.71421 27.15 10.9144 27.15 13.2085V14.6668ZM16.9417 29.2502V29.3502H17.0417H19.9583H20.0583V29.2502V25.9998C20.6095 25.6672 21.0403 25.1668 21.287 24.5712C21.5412 23.9577 21.5858 23.2774 21.4139 22.636C21.242 21.9945 20.8633 21.4277 20.3364 21.0235C19.8096 20.6192 19.1641 20.4001 18.5 20.4001C17.8359 20.4001 17.1904 20.6192 16.6636 21.0235C16.1367 21.4277 15.758 21.9945 15.5861 22.636C15.4143 23.2774 15.4588 23.9577 15.713 24.5712C15.9597 25.1668 16.3905 25.6672 16.9417 25.9998V29.2502ZM24.3333 14.7668H24.4333V14.6668V13.2085C24.4333 11.6349 23.8082 10.1257 22.6955 9.013C21.5828 7.90028 20.0736 7.27516 18.5 7.27516C16.9264 7.27516 15.4172 7.90028 14.3045 9.013C13.1918 10.1257 12.5667 11.6349 12.5667 13.2085V14.6668V14.7668H12.6667H24.3333Z" stroke="url(#paint1_linear_199_4129)" stroke-width="0.2"/>
</g>
</g>
</g>
<defs>
<filter id="filter0_di_199_4129" x="0.125" y="0.958496" width="36.75" height="41.125" filterUnits="userSpaceOnUse" color-interpolation-filters="sRGB">
<feFlood flood-opacity="0" result="BackgroundImageFix"/>
<feColorMatrix in="SourceAlpha" type="matrix" values="0 0 0 0 0 0 0 0 0 0 0 0 0 0 0 0 0 0 127 0" result="hardAlpha"/>
<feOffset dy="1.75"/>
<feGaussianBlur stdDeviation="2.625"/>
<feComposite in2="hardAlpha" operator="out"/>
<feColorMatrix type="matrix" values="0 0 0 0 0.968483 0 0 0 0 0.771165 0 0 0 0 0.012842 0 0 0 1 0"/>
<feBlend mode="normal" in2="BackgroundImageFix" result="effect1_dropShadow_199_4129"/>
<feBlend mode="normal" in="SourceGraphic" in2="effect1_dropShadow_199_4129" result="shape"/>
<feColorMatrix in="SourceAlpha" type="matrix" values="0 0 0 0 0 0 0 0 0 0 0 0 0 0 0 0 0 0 127 0" result="hardAlpha"/>
<feOffset dy="1.75"/>
<feGaussianBlur stdDeviation="1.75"/>
<feComposite in2="hardAlpha" operator="arithmetic" k2="-1" k3="1"/>
<feColorMatrix type="matrix" values="0 0 0 0 0 0 0 0 0 0 0 0 0 0 0 0 0 0 0.25 0"/>
<feBlend mode="normal" in2="shape" result="effect2_innerShadow_199_4129"/>
</filter>
<linearGradient id="paint0_linear_199_4129" x1="27.6875" y1="-35.354" x2="74.5303" y2="-5.95361" gradientUnits="userSpaceOnUse">
<stop offset="0.317381" stop-color="#E98300"/>
<stop offset="0.892558" stop-color="#E65E03"/>
</linearGradient>
<linearGradient id="paint1_linear_199_4129" x1="18.5" y1="4.4585" x2="18.5" y2="35.0835" gradientUnits="userSpaceOnUse">
<stop stop-color="white"/>
<stop offset="1" stop-color="white" stop-opacity="0"/>
</linearGradient>
</defs>
</svg>
