<svg width="33" height="32" viewBox="0 0 33 32" fill="none" xmlns="http://www.w3.org/2000/svg">
<g filter="url(#filter0_bd_199_3843)">
<path d="M14.7536 1.12919C15.5166 -0.23789 17.4834 -0.237886 18.2464 1.1292L21.8883 7.65461C22.1744 8.1673 22.6714 8.52836 23.2474 8.64206L30.5788 10.0892C32.1148 10.3924 32.7226 12.263 31.6582 13.4111L26.5775 18.8912C26.1784 19.3217 25.9885 19.906 26.0584 20.4889L26.9476 27.9087C27.1339 29.4632 25.5427 30.6193 24.1218 29.9618L17.34 26.8232C16.8071 26.5766 16.1929 26.5766 15.66 26.8232L8.87815 29.9618C7.45734 30.6193 5.86609 29.4632 6.05239 27.9087L6.9416 20.4889C7.01146 19.906 6.82164 19.3217 6.42246 18.8912L1.34182 13.4111C0.277421 12.263 0.885226 10.3924 2.42117 10.0892L9.7526 8.64206C10.3286 8.52836 10.8256 8.1673 11.1117 7.65461L14.7536 1.12919Z" fill="url(#paint0_linear_199_3843)" shape-rendering="crispEdges"/>
<path d="M14.9282 1.22666C15.6149 -0.00371218 17.3851 -0.00370979 18.0718 1.22667L21.7136 7.75208C22.0284 8.31604 22.575 8.7132 23.2087 8.83827L30.5401 10.2854C31.9225 10.5583 32.4695 12.2419 31.5115 13.2751L26.4309 18.7552C25.9918 19.2288 25.783 19.8715 25.8598 20.5127L26.749 27.9325C26.9167 29.3315 25.4846 30.372 24.2058 29.7803L17.424 26.6417C16.8379 26.3705 16.1621 26.3705 15.576 26.6417L8.79415 29.7803C7.51542 30.372 6.0833 29.3315 6.25096 27.9325L7.14017 20.5127C7.21702 19.8715 7.00822 19.2288 6.56913 18.7552L1.48849 13.2751C0.530527 12.2419 1.07755 10.5583 2.4599 10.2854L9.79133 8.83827C10.425 8.7132 10.9716 8.31603 11.2864 7.75208L14.9282 1.22666Z" stroke="url(#paint1_linear_199_3843)" stroke-width="0.4" shape-rendering="crispEdges"/>
</g>
<defs>
<filter id="filter0_bd_199_3843" x="-7.19328" y="-7.896" width="47.3866" height="46.0459" filterUnits="userSpaceOnUse" color-interpolation-filters="sRGB">
<feFlood flood-opacity="0" result="BackgroundImageFix"/>
<feGaussianBlur in="BackgroundImageFix" stdDeviation="4"/>
<feComposite in2="SourceAlpha" operator="in" result="effect1_backgroundBlur_199_3843"/>
<feColorMatrix in="SourceAlpha" type="matrix" values="0 0 0 0 0 0 0 0 0 0 0 0 0 0 0 0 0 0 127 0" result="hardAlpha"/>
<feOffset dy="1"/>
<feComposite in2="hardAlpha" operator="out"/>
<feColorMatrix type="matrix" values="0 0 0 0 0.233504 0 0 0 0 0.206886 0 0 0 0 0.88373 0 0 0 0.38 0"/>
<feBlend mode="normal" in2="effect1_backgroundBlur_199_3843" result="effect2_dropShadow_199_3843"/>
<feBlend mode="normal" in="SourceGraphic" in2="effect2_dropShadow_199_3843" result="shape"/>
</filter>
<linearGradient id="paint0_linear_199_3843" x1="16.5" y1="-10.14" x2="16.5" y2="61.085" gradientUnits="userSpaceOnUse">
<stop stop-color="#298EE6"/>
<stop offset="0.885648" stop-color="#4F3CDA" stop-opacity="0"/>
</linearGradient>
<linearGradient id="paint1_linear_199_3843" x1="16.5" y1="-2" x2="16.5" y2="35" gradientUnits="userSpaceOnUse">
<stop stop-color="white"/>
<stop offset="1" stop-color="white" stop-opacity="0"/>
</linearGradient>
</defs>
</svg>
